<svg xmlns="http://www.w3.org/2000/svg" width="60" height="30" viewBox="0 0 77.333 58">
  <defs>
    <style>
      .cls-1 {
        fill: #fff3f3;
      }
    </style>
  </defs>
  <path id="_hover_state_contact-phone-icon_W77_33_x_H58_Hex_EDF0F2" data-name="[hover state] contact-phone-icon W77,33 x H58 Hex #EDF0F2" class="cls-1" d="M70.889,3H6.444A6.463,6.463,0,0,0,0,9.444V54.556A6.463,6.463,0,0,0,6.444,61H70.889A6.436,6.436,0,0,0,77.3,54.556l.032-45.111A6.463,6.463,0,0,0,70.889,3ZM25.778,12.667a9.667,9.667,0,1,1-9.667,9.667A9.654,9.654,0,0,1,25.778,12.667ZM45.111,51.333H6.444V48.111c0-6.444,12.889-9.989,19.333-9.989s19.333,3.544,19.333,9.989ZM57.517,38.444H62.8l4.866,6.444L61.254,51.3a24.2,24.2,0,0,1-8.8-12.857,23.467,23.467,0,0,1,0-12.889,24.083,24.083,0,0,1,8.8-12.857l6.412,6.412L62.8,25.556H57.517a18.977,18.977,0,0,0,0,12.889Z" transform="translate(0 -3)"/>
</svg>
