<svg xmlns="http://www.w3.org/2000/svg" width="60" height="30" viewBox="0 0 77.333 58">
  <defs>
    <style>
      .cls-1 {
        fill: #fff3f3;
      }
    </style>
  </defs>
  <path id="_hover_state_mail_icon_W77_33_x_H58_Hex_001F33" data-name="[hover state]mail icon W77,33 x H58 Hex #001F33" class="cls-1" d="M67.667,19.111V15.889L58,22.333l-9.667-6.444v3.222L58,25.556ZM70.889,3H6.444A6.463,6.463,0,0,0,0,9.444V54.556A6.463,6.463,0,0,0,6.444,61H70.889A6.436,6.436,0,0,0,77.3,54.556l.032-45.111A6.463,6.463,0,0,0,70.889,3ZM25.778,12.667a9.667,9.667,0,1,1-9.667,9.667A9.654,9.654,0,0,1,25.778,12.667ZM45.111,51.333H6.444V48.111c0-6.444,12.889-9.989,19.333-9.989s19.333,3.544,19.333,9.989ZM70.889,32H45.111V12.667H70.889Z" transform="translate(0 -3)"/>
</svg>
